<?xml version="1.0" encoding="iso-8859-1"?>
<!-- Generator: Adobe Illustrator 19.0.0, SVG Export Plug-In . SVG Version: 6.00 Build 0)  -->
<svg version="1.1" id="Capa_1" xmlns="http://www.w3.org/2000/svg" xmlns:xlink="http://www.w3.org/1999/xlink" x="0px" y="0px"
	 viewBox="0 0 64 64" style="enable-background:new 0 0 64 64;" xml:space="preserve">
<g>
	<path d="M40.5,34.5c-1.93,0-3.5,1.57-3.5,3.5v1c0,1.93,1.57,3.5,3.5,3.5c0.827,0,1.5,0.673,1.5,1.5v1c0,0.827-0.673,1.5-1.5,1.5
		S39,45.827,39,45v-0.5h-2V45c0,1.93,1.57,3.5,3.5,3.5S44,46.93,44,45v-1c0-1.93-1.57-3.5-3.5-3.5c-0.827,0-1.5-0.673-1.5-1.5v-1
		c0-0.827,0.673-1.5,1.5-1.5S42,37.173,42,38v0.5h2V38C44,36.07,42.43,34.5,40.5,34.5z"/>
	<path d="M46,35.5v5v2v5c0,0.552,0.448,1,1,1h6v-2h-5v-4h4v-2h-4v-4h5v-2h-6C46.448,34.5,46,34.948,46,35.5z"/>
	<path d="M59,27.5h-6.667L33.981,13.736C34.601,13.186,35,12.392,35,11.5c0-1.654-1.346-3-3-3s-3,1.346-3,3
		c0,0.892,0.399,1.686,1.019,2.236L11.667,27.5H5c-2.757,0-5,2.243-5,5v18c0,2.757,2.243,5,5,5h54c2.757,0,5-2.243,5-5v-18
		C64,29.743,61.757,27.5,59,27.5z M32,10.5c0.551,0,1,0.449,1,1s-0.449,1-1,1c-0.551,0-1-0.449-1-1S31.449,10.5,32,10.5z M32,14.75
		L49,27.5H15L32,14.75z M62,50.5c0,1.654-1.346,3-3,3H5c-1.654,0-3-1.346-3-3v-18c0-1.654,1.346-3,3-3h54c1.654,0,3,1.346,3,3V50.5z
		"/>
	<path d="M13.5,34.5c-1.93,0-3.5,1.57-3.5,3.5v7c0,1.93,1.57,3.5,3.5,3.5S17,46.93,17,45v-0.5h-2V45c0,0.827-0.673,1.5-1.5,1.5
		S12,45.827,12,45v-7c0-0.827,0.673-1.5,1.5-1.5S15,37.173,15,38v0.5h2V38C17,36.07,15.43,34.5,13.5,34.5z"/>
	<path d="M21,34.5h-2v13c0,0.552,0.448,1,1,1h6v-2h-5V34.5z"/>
	<path d="M31,34.5c-2.206,0-4,1.794-4,4v6c0,2.206,1.794,4,4,4s4-1.794,4-4v-6C35,36.294,33.206,34.5,31,34.5z M33,44.5
		c0,1.103-0.897,2-2,2s-2-0.897-2-2v-6c0-1.103,0.897-2,2-2s2,0.897,2,2V44.5z"/>
</g>
<g>
</g>
<g>
</g>
<g>
</g>
<g>
</g>
<g>
</g>
<g>
</g>
<g>
</g>
<g>
</g>
<g>
</g>
<g>
</g>
<g>
</g>
<g>
</g>
<g>
</g>
<g>
</g>
<g>
</g>
</svg>
